name rise31.4854peak64.571fall78.6902.mot
datacolumns 19
datarows 14
range 20.62992600000000 20.65158800000000
endheader
time	ground_force1_vx	ground_force1_vy	ground_force1_vz	ground_force1_px	ground_force1_py	ground_force1_pz	ground_force2_vx	ground_force2_vy	ground_force2_vz	ground_force2_px	ground_force2_py	ground_force2_pz	ground_torque1_x	ground_torque1_y	ground_torque1_z	ground_torque2_x	ground_torque2_y	ground_torque2_z	
20.62992600000000	-50.30814500000000	823.11248300000000	58.69590800000000	0.11210300000000	0.00000000000000	0.10248500000000	-9.43584000000000	60.14297500000000	9.65022500000000	0.33683400000000	0.00000000000000	-0.08294100000000	0.00000000000000	21.98565800000000	0.00000000000000	0.00000000000000	5.33001500000000	0.00000000000000	
20.63159300000000	-50.52395600000000	820.82555300000001	58.52636900000000	0.11150100000000	0.00000000000000	0.10245500000000	-9.85092200000000	66.51739600000001	10.39208900000000	0.34200200000000	0.00000000000000	-0.08305700000000	0.00000000000000	21.88585400000000	0.00000000000000	0.00000000000000	5.87068900000000	0.00000000000000	
20.63325700000000	-50.74319000000000	818.37746000000004	58.32508600000000	0.11092200000000	0.00000000000000	0.10242000000000	-10.11476300000000	72.68651800000001	11.04006900000000	0.34692600000000	0.00000000000000	-0.08316100000000	0.00000000000000	21.78426300000000	0.00000000000000	0.00000000000000	6.37832600000000	0.00000000000000	
20.63492000000000	-50.96651500000000	815.76820999999995	58.09177700000000	0.11036800000000	0.00000000000000	0.10238000000000	-10.22901900000000	78.63340100000001	11.59219000000000	0.35162400000000	0.00000000000000	-0.08325800000000	0.00000000000000	21.68106500000000	0.00000000000000	0.00000000000000	6.84919200000000	0.00000000000000	
20.63659200000000	-51.19458600000000	812.99798099999998	57.82623200000000	0.10983800000000	0.00000000000000	0.10233600000000	-10.20105000000000	84.36411699999999	12.05111600000000	0.35611000000000	0.00000000000000	-0.08334900000000	0.00000000000000	21.57643600000000	0.00000000000000	0.00000000000000	7.28199700000000	0.00000000000000	
20.63825800000000	-51.42803600000000	810.06711399999995	57.52831500000000	0.10933200000000	0.00000000000000	0.10228600000000	-10.04256000000000	89.90370200000000	12.42319200000000	0.36039600000000	0.00000000000000	-0.08343700000000	0.00000000000000	21.47054200000000	0.00000000000000	0.00000000000000	7.67754700000000	0.00000000000000	
20.63991900000000	-51.66747500000000	806.97610399999996	57.19796100000000	0.10885000000000	0.00000000000000	0.10223100000000	-9.76813000000000	95.29126599999999	12.71735800000000	0.36449300000000	0.00000000000000	-0.08352200000000	0.00000000000000	21.36354100000000	0.00000000000000	0.00000000000000	8.03827400000000	0.00000000000000	
20.64158600000000	-51.91348500000000	803.72559699999999	56.83518200000000	0.10839100000000	0.00000000000000	0.10217200000000	-9.39376300000000	100.57479200000000	12.94403300000000	0.36840800000000	0.00000000000000	-0.08360800000000	0.00000000000000	21.25558000000000	0.00000000000000	0.00000000000000	8.36771300000000	0.00000000000000	
20.64325700000000	-52.16661500000000	800.31637799999999	56.44006100000000	0.10795400000000	0.00000000000000	0.10210700000000	-8.93556600000000	105.80611600000000	13.11407100000000	0.37214800000000	0.00000000000000	-0.08369300000000	0.00000000000000	21.14679900000000	0.00000000000000	0.00000000000000	8.66997500000000	0.00000000000000	
20.64492000000000	-52.42738100000000	796.74936300000002	56.01275200000000	0.10753900000000	0.00000000000000	0.10203700000000	-8.40865000000000	111.03644900000000	13.23786900000000	0.37571900000000	0.00000000000000	-0.08378100000000	0.00000000000000	21.03732400000000	0.00000000000000	0.00000000000000	8.94926400000000	0.00000000000000	
20.64659400000000	-52.69625400000000	793.02559399999996	55.55348600000000	0.10714500000000	0.00000000000000	0.10196200000000	-7.82629900000000	116.31270700000000	13.32465700000000	0.37912600000000	0.00000000000000	-0.08387200000000	0.00000000000000	20.92727100000000	0.00000000000000	0.00000000000000	9.20946400000000	0.00000000000000	
20.64825200000000	-52.97366400000000	789.14622499999996	55.06255900000000	0.10677100000000	0.00000000000000	0.10188200000000	-7.19941700000000	121.67478000000000	13.38200600000000	0.38237400000000	0.00000000000000	-0.08396500000000	0.00000000000000	20.81674600000000	0.00000000000000	0.00000000000000	9.45382400000000	0.00000000000000	
20.64992500000000	-53.25998800000000	785.11251500000003	54.54034200000000	0.10641500000000	0.00000000000000	0.10179600000000	-6.53625300000000	127.15379500000000	13.41553900000000	0.38546500000000	0.00000000000000	-0.08406400000000	0.00000000000000	20.70584100000000	0.00000000000000	0.00000000000000	9.68474400000000	0.00000000000000	
20.65158800000000	-53.55555300000000	780.92582200000004	53.98727100000000	0.10607700000000	0.00000000000000	0.10170600000000	-5.84238100000000	132.77131800000001	13.42884600000000	0.38840500000000	0.00000000000000	-0.08416600000000	0.00000000000000	20.59463800000000	0.00000000000000	0.00000000000000	9.90367400000000	0.00000000000000	
